# xmcd CD database file
#
# Track frame offsets:
#	150
#	19053
#	30970
#	45720
#	66318
#	88428
#	115890
#	147063
#	169485
#	181845
#	205855
#	225298
#
# Disc length: 3288 seconds
#
# Revision: 3
# Processed by: cddbd v1.5.2PL0 Copyright (c) Steve Scherf et al.
# Submitted via: CDex 1.51
#
DISCID=9d0cd60c
DTITLE=Muddy Waters - Hoochie Coochie Man
DYEAR=1996
DGENRE=Blues
TTITLE0=Country Boy
TTITLE1=Baby Please Don't Go
TTITLE2=Hoochie Coochie Man
TTITLE3=Sittin' and Thinkin'
TTITLE4=19 Years Old
TTITLE5=County Jail
TTITLE6=Long Distance Call
TTITLE7=Rock Me Baby
TTITLE8=Sweet Little Angel
TTITLE9=Rosalie
TTITLE10=All Night Long
TTITLE11=Early Morning Blues
EXTD=YEAR: 1996
EXTT0=
EXTT1=
EXTT2=
EXTT3=
EXTT4=
EXTT5=
EXTT6=
EXTT7=
EXTT8=
EXTT9=
EXTT10=
EXTT11=
PLAYORDER=
